<svg xmlns="http://www.w3.org/2000/svg" width="240.769" height="323.465" viewBox="0 0 240.769 323.465"><g fill="#0A184E"><path d="M171.546 34.366c-32.279-13.821-70.04-13.821-102.319 0C36.163 48.522 8.546 89.345 15.974 159.519c6.937 65.461 90.438 152.587 103.667 163.946h1.498c13.224-11.359 111.833-98.123 118.777-163.583 7.434-70.174-35.305-111.36-68.37-125.516z"/><path d="M118.802 24.039c-16.984.201-33.925 3.626-49.575 10.327C36.163 48.522-6.577 89.708.851 159.882c6.821 64.307 102.073 149.133 117.951 162.863V24.039z"/><path d="M54.143 142.012c0-37.423 29.67-67.759 66.241-67.759 36.576 0 66.241 30.336 66.241 67.759 0 37.421-29.665 67.752-66.241 67.752-36.571 0-66.241-30.331-66.241-67.752z"/><ellipse cx="120.382" cy="145.529" rx="64.81" ry="67.394"/></g><g fill="#006"><path d="M171.546 10.366c-32.278-13.821-70.04-13.821-102.319 0C36.163 24.522 8.546 65.345 15.974 135.519c6.937 65.461 90.438 152.587 103.667 163.946h1.498c13.224-11.359 111.834-98.123 118.777-163.583 7.434-70.174-35.305-111.36-68.37-125.516z"/><path d="M118.802.039C101.818.24 84.877 3.665 69.227 10.366 36.163 24.522-6.577 65.708.851 135.882c6.821 64.307 102.073 149.133 117.951 162.863V.039z"/><path d="M54.143 118.012c0-37.423 29.67-67.759 66.241-67.759 36.576 0 66.241 30.336 66.241 67.759 0 37.421-29.665 67.752-66.241 67.752-36.571 0-66.241-30.331-66.241-67.752z"/><ellipse cx="120.382" cy="121.529" rx="64.81" ry="67.394"/></g><path fill="#FFF" d="M169.495 66.939H71.272c-4.821 0-8.744 3.924-8.744 8.745v100.898c0 4.822 3.923 8.744 8.744 8.744h4.029v8.148c0 1.184.96 2.144 2.144 2.144h15.042c1.184 0 2.144-.96 2.144-2.144v-8.148h50.839v8.148c0 1.184.96 2.144 2.144 2.144h15.042c1.183 0 2.144-.96 2.144-2.144v-8.148h4.696c4.821 0 8.745-3.922 8.745-8.744V75.684c-.001-4.821-3.925-8.745-8.746-8.745zm-73.779 8.853c0-.633.52-1.153 1.155-1.153h47.026c.635 0 1.154.52 1.154 1.153v5.521c0 .635-.52 1.154-1.154 1.154H96.871a1.157 1.157 0 0 1-1.155-1.154v-5.521zm-11.949 94.754c-4.775 0-8.646-3.868-8.646-8.644s3.87-8.646 8.646-8.646a8.645 8.645 0 1 1 0 17.29zm73.235 0c-4.774 0-8.644-3.868-8.644-8.644s3.869-8.646 8.644-8.646 8.645 3.871 8.645 8.646-3.87 8.644-8.645 8.644zm12.895-42.223l-6.186 3.271a92.875 92.875 0 0 1-87.466-.359l-5.376-2.896V92.352h99.027v35.971z"/></svg>